<svg version="1.1" xmlns="http://www.w3.org/2000/svg" xmlns:xlink="http://www.w3.org/1999/xlink" x="0" y="0" viewBox="0 0 30 30" xml:space="preserve" enable-background="new 0 0 30 30"><style type="text/css">.st0{display:none}.st1{display:inline}</style><g id="Layer_2" class="st0"><path class="st1" d="M19.2155094,14.4901285c-0.1605873,0.1605873-0.3659344,0.2422552-0.6105461,0.2422552h-6.4044247 c-0.2446117,0-0.4503517-0.0816679-0.6101542-0.2422552c-0.1605873-0.1601954-0.2422552-0.3655424-0.2422552-0.6101542 c0-0.2442188,0.081275-0.4495668,0.2422552-0.6101542c0.1605873-0.1609802,0.3659353-0.2426481,0.6101542-0.2426481h6.4044247 c0.2438259,0,0.4491749,0.0816679,0.6101551,0.2422552c0.1613712,0.1613731,0.2426472,0.3667212,0.2426472,0.6105471 C19.4577656,14.1241932,19.3764896,14.3295412,19.2155094,14.4901285z"/><path class="st1" d="M15.4029541,4.8797607c-4.9705811,0-9,4.0294189-9,9c0,2.4486084,0.9810181,4.6658936,2.5675049,6.2885132 l-3.9484863,3.9489136L6.4360352,25.53125l4.0924072-4.0928345c1.4055176,0.9083252,3.0764771,1.4413452,4.8745117,1.4413452 c4.9705811,0,9-4.0294189,9-9S20.3735352,4.8797607,15.4029541,4.8797607z M15.4029541,20.8797607c-3.8598022,0-7-3.1401978-7-7 s3.1401978-7,7-7s7,3.1401978,7,7S19.2627563,20.8797607,15.4029541,20.8797607z"/></g><g id="Layer_3"><path d="M19.2151489,13.2694092c-0.1610107-0.1605835-0.366333-0.2422485-0.6101685-0.2422485h-2.3494263v-2.3494263 c0-0.2446289-0.081665-0.4499512-0.2422485-0.6105347c-0.1605835-0.1610107-0.3659668-0.2422485-0.6101685-0.2422485 c-0.2438354,0-0.4491577,0.0812378-0.6105347,0.2426147c-0.1605835,0.1610107-0.2422485,0.366333-0.2422485,0.6101685v2.3494263 h-2.3497925c-0.2442627,0-0.449585,0.081665-0.6101685,0.2426147c-0.1610107,0.1605835-0.2422485,0.3659668-0.2422485,0.6101685 c0,0.2446289,0.081665,0.4499512,0.2422485,0.6101685c0.15979,0.1605835,0.3655396,0.2422485,0.6101685,0.2422485h2.3497925 v2.3497925c0,0.2442017,0.081665,0.449585,0.2426147,0.6101685c0.1606445,0.1609497,0.3659668,0.2422485,0.6101685,0.2422485 c0.2446289,0,0.4499512-0.081665,0.6101685-0.2422485c0.1605835-0.15979,0.2422485-0.3655396,0.2422485-0.6101685v-2.3497925 h2.3494263c0.2446289,0,0.4499512-0.081665,0.6105347-0.2422485c0.1610107-0.1605835,0.2422485-0.3659668,0.2422485-0.6101685 C19.4577637,13.6361084,19.3765259,13.4307861,19.2151489,13.2694092z"/><path d="M15.4029541,4.8797607c-4.9705811,0-9,4.0294189-9,9c0,2.4486084,0.9810181,4.6658936,2.5675049,6.2885132 l-3.9484863,3.9489136L6.4360352,25.53125l4.0924072-4.0928345c1.4055176,0.9083252,3.0764771,1.4413452,4.8745117,1.4413452 c4.9705811,0,9-4.0294189,9-9S20.3735352,4.8797607,15.4029541,4.8797607z M15.4029541,20.8797607c-3.8598022,0-7-3.1401978-7-7 s3.1401978-7,7-7s7,3.1401978,7,7S19.2627563,20.8797607,15.4029541,20.8797607z"/></g></svg>